<svg width="38" height="54" fill="none" xmlns="http://www.w3.org/2000/svg"><path d="M0 49.192h38V54H0v-4.808ZM0 44.383h38v4.809H0v-4.809Z" fill="#fff"/><path fill-rule="evenodd" clip-rule="evenodd" d="M25.24 14.055H12.76c-.322 19.495-3.295 34.767-6.914 34.767-.12 0-.24-.017-.36-.05l-.005.05H32.519l-.005-.05c-.12.033-.24.05-.36.05-3.62 0-6.592-15.272-6.914-34.767Z" fill="#fff"/><path d="M31.423 12.575c0 6.945-5.562 12.576-12.423 12.576S6.577 19.52 6.577 12.575C6.577 5.63 12.139 0 19 0s12.423 5.63 12.423 12.575Z" fill="#fff"/></svg>