<svg width="280" height="70" viewBox="0 0 280 70" fill="none" xmlns="http://www.w3.org/2000/svg">
<path d="M17.5 0H0V17.5H17.5V0Z" fill="white"/>
<path d="M17.5 35H0V52.5H17.5V35Z" fill="white"/>
<path d="M280 17.5H262.5V35H280V17.5Z" fill="white"/>
<path d="M280 52.5H262.5V70H280V52.5Z" fill="white"/>
<path d="M157.5 0H140V17.5H157.5V0Z" fill="white"/>
<path d="M157.5 35H140V52.5H157.5V35Z" fill="white"/>
<path d="M140 17.5H122.5V35H140V17.5Z" fill="white"/>
<path d="M140 52.5H122.5V70H140V52.5Z" fill="white"/>
<path d="M52.5 0H35V17.5H52.5V0Z" fill="white"/>
<path d="M52.5 35H35V52.5H52.5V35Z" fill="white"/>
<path d="M35 17.5H17.5V35H35V17.5Z" fill="white"/>
<path d="M35 52.5H17.5V70H35V52.5Z" fill="white"/>
<path d="M192.5 0H175V17.5H192.5V0Z" fill="white"/>
<path d="M192.5 35H175V52.5H192.5V35Z" fill="white"/>
<path d="M175 17.5H157.5V35H175V17.5Z" fill="white"/>
<path d="M175 52.5H157.5V70H175V52.5Z" fill="white"/>
<path d="M87.5 0H70V17.5H87.5V0Z" fill="white"/>
<path d="M87.5 35H70V52.5H87.5V35Z" fill="white"/>
<path d="M70 17.5H52.5V35H70V17.5Z" fill="white"/>
<path d="M70 52.5H52.5V70H70V52.5Z" fill="white"/>
<path d="M227.5 0H210V17.5H227.5V0Z" fill="white"/>
<path d="M227.5 35H210V52.5H227.5V35Z" fill="white"/>
<path d="M210 17.5H192.5V35H210V17.5Z" fill="white"/>
<path d="M210 52.5H192.5V70H210V52.5Z" fill="white"/>
<path d="M122.5 0H105V17.5H122.5V0Z" fill="white"/>
<path d="M122.5 35H105V52.5H122.5V35Z" fill="white"/>
<path d="M105 17.5H87.5V35H105V17.5Z" fill="white"/>
<path d="M105 52.5H87.5V70H105V52.5Z" fill="white"/>
<path d="M262.5 0H245V17.5H262.5V0Z" fill="white"/>
<path d="M262.5 35H245V52.5H262.5V35Z" fill="white"/>
<path d="M245 17.5H227.5V35H245V17.5Z" fill="white"/>
<path d="M245 52.5H227.5V70H245V52.5Z" fill="white"/>
<path d="M35 0H17.5V17.5H35V0Z" fill="#5036E6"/>
<path d="M35 35H17.5V52.5H35V35Z" fill="#5036E6"/>
<path d="M17.5 17.5H0V35H17.5V17.5Z" fill="#5036E6"/>
<path d="M17.5 52.5H0V70H17.5V52.5Z" fill="#5036E6"/>
<path d="M175 0H157.5V17.5H175V0Z" fill="#5036E6"/>
<path d="M175 35H157.5V52.5H175V35Z" fill="#5036E6"/>
<path d="M157.5 17.5H140V35H157.5V17.5Z" fill="#5036E6"/>
<path d="M157.5 52.5H140V70H157.5V52.5Z" fill="#5036E6"/>
<path d="M70 0H52.5V17.5H70V0Z" fill="#5036E6"/>
<path d="M70 35H52.5V52.5H70V35Z" fill="#5036E6"/>
<path d="M52.5 17.5H35V35H52.5V17.5Z" fill="#5036E6"/>
<path d="M52.5 52.5H35V70H52.5V52.5Z" fill="#5036E6"/>
<path d="M210 0H192.5V17.5H210V0Z" fill="#5036E6"/>
<path d="M210 35H192.5V52.5H210V35Z" fill="#5036E6"/>
<path d="M192.5 17.5H175V35H192.5V17.5Z" fill="#5036E6"/>
<path d="M192.5 52.5H175V70H192.5V52.5Z" fill="#5036E6"/>
<path d="M105 0H87.5V17.5H105V0Z" fill="#5036E6"/>
<path d="M105 35H87.5V52.5H105V35Z" fill="#5036E6"/>
<path d="M87.5 17.5H70V35H87.5V17.5Z" fill="#5036E6"/>
<path d="M87.5 52.5H70V70H87.5V52.5Z" fill="#5036E6"/>
<path d="M245 0H227.5V17.5H245V0Z" fill="#5036E6"/>
<path d="M245 35H227.5V52.5H245V35Z" fill="#5036E6"/>
<path d="M227.5 17.5H210V35H227.5V17.5Z" fill="#5036E6"/>
<path d="M227.5 52.5H210V70H227.5V52.5Z" fill="#5036E6"/>
<path d="M140 0H122.5V17.5H140V0Z" fill="#5036E6"/>
<path d="M140 35H122.5V52.5H140V35Z" fill="#5036E6"/>
<path d="M122.5 17.5H105V35H122.5V17.5Z" fill="#5036E6"/>
<path d="M122.5 52.5H105V70H122.5V52.5Z" fill="#5036E6"/>
<path d="M280 0H262.5V17.5H280V0Z" fill="#5036E6"/>
<path d="M280 35H262.5V52.5H280V35Z" fill="#5036E6"/>
<path d="M262.5 17.5H245V35H262.5V17.5Z" fill="#5036E6"/>
<path d="M262.5 52.5H245V70H262.5V52.5Z" fill="#5036E6"/>
</svg>
