<svg width="120" height="60" viewBox="0 0 120 60" fill="none" xmlns="http://www.w3.org/2000/svg">
<path d="M120 30C120 13.4315 106.568 2.46673e-05 89.9999 2.53915e-05C73.4314 2.61158e-05 60 13.4315 60 30C60 46.5685 73.4314 60 89.9999 60C106.568 60 120 46.5685 120 30Z" fill="#5036E6"/>
<path d="M60 30C60 22.0435 63.1607 14.4129 68.7868 8.78681C74.4128 3.16072 82.0434 1.23879e-05 89.9999 1.20401e-05L89.9999 30L60 30Z" fill="#5036E6"/>
<path d="M120 30C120 37.9565 116.839 45.5871 111.213 51.2132C105.587 56.8393 97.9565 60 90 60L90 30L120 30Z" fill="#5036E6"/>
<path d="M90 1.33514e-05C97.9565 1.30037e-05 105.587 3.16072 111.213 8.78681C116.839 14.4129 120 22.0435 120 30L90 30L90 1.33514e-05Z" fill="white"/>
<path d="M75.0001 30.0002C75.0001 38.2845 81.7158 45.0002 90.0001 45.0002C98.2843 45.0002 105 38.2845 105 30.0002C105 21.716 98.2843 15.0002 90.0001 15.0002C81.7158 15.0002 75.0001 21.716 75.0001 30.0002Z" fill="black"/>
<path d="M90 45C86.0218 45 82.2065 43.4196 79.3934 40.6066C76.5804 37.7936 75.0001 33.9782 75.0001 30C75.0001 26.0217 76.5804 22.2064 79.3934 19.3934C82.2065 16.5803 86.0218 15 90 15L90 45Z" fill="white"/>
<path d="M30 60C13.4315 60 4.51893e-05 46.5685 4.4465e-05 30L60 30C60 46.5685 46.5686 60 30 60Z" fill="#5036E6"/>
<path d="M60 30C60 26.0603 59.224 22.1593 57.7164 18.5195C56.2087 14.8797 53.999 11.5726 51.2132 8.78679C48.4275 6.00104 45.1203 3.79126 41.4805 2.28362C37.8408 0.775973 33.9397 1.13913e-06 30 1.31134e-06L30 30L60 30Z" fill="#5036E6"/>
<path d="M2.15768e-05 30C2.19246e-05 37.9565 3.16072 45.5871 8.78681 51.2132C14.4129 56.8393 22.0435 60 30 60L30 30L2.15768e-05 30Z" fill="#5036E6"/>
<path d="M30 0C26.0603 1.72208e-07 22.1593 0.775973 18.5195 2.28361C14.8797 3.79125 11.5726 6.00104 8.78681 8.7868C6.00105 11.5726 3.79127 14.8797 2.28363 18.5195C0.775995 22.1593 2.2716e-05 26.0603 2.28882e-05 30L30 30L30 0Z" fill="black"/>
<path d="M15 30C15 21.7157 21.7157 15 30 15C38.2843 15 45 21.7157 45 30C45 38.2843 38.2843 45 30 45C21.7157 45 15 38.2843 15 30Z" fill="black"/>
<path d="M45 30C45 26.0218 43.4196 22.2064 40.6066 19.3934C37.7936 16.5804 33.9783 15 30 15C26.0218 15 22.2065 16.5804 19.3934 19.3934C16.5804 22.2064 15 26.0218 15 30L45 30Z" fill="white"/>
</svg>
