<svg width="480" height="640" viewBox="0 0 480 640" fill="none" xmlns="http://www.w3.org/2000/svg">
<path d="M160 639.999C248.365 639.999 320 568.365 320 480C320 391.634 248.365 320 160 320C71.6344 320 0 391.634 0 480C0 568.365 71.6344 639.999 160 639.999Z" fill="#5036E6"/>
<path d="M160 320C202.435 320 243.131 336.857 273.137 366.863C303.143 396.868 320 437.565 320 479.999H160V320Z" fill="#5036E6"/>
<path d="M160 640C117.565 640 76.8687 623.143 46.8629 593.137C16.8571 563.132 0 522.435 0 480.001H160V640Z" fill="#5036E6"/>
<path d="M320 480.001C320 522.435 303.143 563.132 273.137 593.137C243.131 623.143 202.435 640 160 640V480.001H320Z" fill="white"/>
<path d="M159.999 400.001C115.816 400.001 79.9989 435.818 79.9989 480C79.9989 524.183 115.816 560 159.999 560C204.182 560 239.999 524.183 239.999 480C239.999 435.818 204.182 400.001 159.999 400.001Z" fill="black"/>
<path d="M80.0001 480.001C80.0001 458.783 88.4286 438.435 103.431 423.432C118.434 408.43 138.783 400.001 160 400.001C181.217 400.001 201.566 408.43 216.569 423.432C231.571 438.435 240 458.783 240 480.001L80.0001 480.001Z" fill="white"/>
<path d="M480 320C568.366 320 640 248.366 640 160C640 71.6344 568.366 0 480 0C391.634 0 320 71.6344 320 160C320 248.366 391.634 320 480 320Z" fill="#5036E6"/>
<path d="M480 320C437.565 320 396.869 303.143 366.863 273.137C336.857 243.131 320 202.435 320 160H480V320Z" fill="white"/>
<path d="M479.999 80C435.817 80 399.999 115.817 399.999 160C399.999 204.183 435.817 240 479.999 240C524.182 240 559.999 204.183 559.999 160C559.999 115.817 524.182 80 479.999 80Z" fill="black"/>
<path d="M400 160C400 138.783 408.429 118.434 423.431 103.431C438.434 88.4285 458.783 80 480 80C501.217 80 521.566 88.4285 536.569 103.431C551.571 118.434 560 138.783 560 160L400 160Z" fill="white"/>
<ellipse rx="160" ry="159.569" transform="matrix(-1 0 0 1 480 479.569)" fill="#5036E6"/>
<path d="M320 480.431C320 522.751 336.857 563.338 366.863 593.263C396.869 623.188 437.565 640 480 640V480.431H320Z" fill="white"/>
<path d="M0 160C0 71.6344 71.6344 0 160 0L160 320C71.6344 320 0 248.365 0 160Z" fill="#5036E6"/>
<path d="M160 320C181.011 320 201.817 315.861 221.229 307.821C240.641 299.78 258.28 287.994 273.137 273.137C287.994 258.28 299.78 240.641 307.821 221.229C315.861 201.817 320 181.012 320 160L160 160L160 320Z" fill="#5036E6"/>
<path d="M160 0.000366211C117.565 0.000366211 76.8687 16.8574 46.8629 46.8632C16.8571 76.869 0 117.566 0 160L160 160L160 0.000366211Z" fill="#5036E6"/>
<path d="M320 160C320 138.989 315.861 118.183 307.821 98.7709C299.78 79.3589 287.994 61.7206 273.137 46.8632C258.28 32.0059 240.641 20.2204 221.229 12.1796C201.817 4.13889 181.011 0.000366211 160 0.000366211L160 160L320 160Z" fill="black"/>
<path d="M160 80.0001C204.183 80.0001 240 115.817 240 160C240 204.183 204.183 240 160 240C115.817 240 80 204.183 80 160C80 115.817 115.817 80.0001 160 80.0001Z" fill="black"/>
<path d="M160 240C181.217 240 201.566 231.571 216.569 216.569C231.571 201.566 240 181.217 240 160C240 138.783 231.571 118.434 216.569 103.432C201.566 88.4286 181.217 80.0001 160 80.0001L160 240Z" fill="white"/>
</svg>
