<svg width="130" height="520" fill="none" xmlns="http://www.w3.org/2000/svg"><path d="M130 519.999c71.797 0 130-58.202 130-129.999s-58.203-130-130-130S0 318.203 0 390s58.203 129.999 130 129.999Z" fill="#5036E6"/><path d="M130 520A129.999 129.999 0 0 1 0 390h130v130Z" fill="#5036E6"/><path d="M129.999 325c-35.898 0-65 29.102-65 65 0 35.899 29.102 65 65 65 35.899 0 65-29.101 65-65 0-35.898-29.101-65-65-65Z" fill="#000"/><path d="M65 390a64.998 64.998 0 0 1 65-64.999A65 65 0 0 1 195 390H65Z" fill="#fff"/><path d="M0 130C0 58.203 58.203 0 130 0v260C58.203 260 0 201.797 0 130Z" fill="#5036E6"/><path d="M130 0A130 130 0 0 0 0 130h130V0Z" fill="#5036E6"/><path d="M130 65c35.899 0 65 29.102 65 65 0 35.899-29.101 65-65 65-35.898 0-65-29.101-65-65 0-35.898 29.102-65 65-65Z" fill="#000"/></svg>