<svg width="416" height="104" fill="none" xmlns="http://www.w3.org/2000/svg"><path d="M26 0H0v26h26V0ZM26 52H0v26h26V52ZM416 26h-26v26h26V26ZM416 78h-26v26h26V78ZM234 0h-26v26h26V0ZM234 52h-26v26h26V52ZM208 26h-26v26h26V26ZM208 78h-26v26h26V78ZM78 0H52v26h26V0ZM78 52H52v26h26V52ZM52 26H26v26h26V26ZM52 78H26v26h26V78ZM286 0h-26v26h26V0ZM286 52h-26v26h26V52ZM260 26h-26v26h26V26ZM260 78h-26v26h26V78ZM130 0h-26v26h26V0ZM130 52h-26v26h26V52ZM104 26H78v26h26V26ZM104 78H78v26h26V78ZM338 0h-26v26h26V0ZM338 52h-26v26h26V52ZM312 26h-26v26h26V26ZM312 78h-26v26h26V78ZM182 0h-26v26h26V0ZM182 52h-26v26h26V52ZM156 26h-26v26h26V26ZM156 78h-26v26h26V78ZM390 0h-26v26h26V0ZM390 52h-26v26h26V52ZM364 26h-26v26h26V26ZM364 78h-26v26h26V78Z" fill="#fff"/><path d="M52 0H26v26h26V0ZM52 52H26v26h26V52ZM26 26H0v26h26V26ZM26 78H0v26h26V78ZM260 0h-26v26h26V0ZM260 52h-26v26h26V52ZM234 26h-26v26h26V26ZM234 78h-26v26h26V78ZM104 0H78v26h26V0ZM104 52H78v26h26V52ZM78 26H52v26h26V26ZM78 78H52v26h26V78ZM312 0h-26v26h26V0ZM312 52h-26v26h26V52ZM286 26h-26v26h26V26ZM286 78h-26v26h26V78ZM156 0h-26v26h26V0ZM156 52h-26v26h26V52ZM130 26h-26v26h26V26ZM130 78h-26v26h26V78ZM364 0h-26v26h26V0ZM364 52h-26v26h26V52ZM338 26h-26v26h26V26ZM338 78h-26v26h26V78ZM208 0h-26v26h26V0ZM208 52h-26v26h26V52ZM182 26h-26v26h26V26ZM182 78h-26v26h26V78ZM416 0h-26v26h26V0ZM416 52h-26v26h26V52ZM390 26h-26v26h26V26ZM390 78h-26v26h26V78Z" fill="#009465"/></svg>