<svg width="280" height="70" fill="none" xmlns="http://www.w3.org/2000/svg"><path d="M17.5 0H0v17.5h17.5V0ZM17.5 35H0v17.5h17.5V35ZM280 17.5h-17.5V35H280V17.5ZM280 52.5h-17.5V70H280V52.5ZM157.5 0H140v17.5h17.5V0ZM157.5 35H140v17.5h17.5V35ZM140 17.5h-17.5V35H140V17.5ZM140 52.5h-17.5V70H140V52.5ZM52.5 0H35v17.5h17.5V0ZM52.5 35H35v17.5h17.5V35ZM35 17.5H17.5V35H35V17.5ZM35 52.5H17.5V70H35V52.5ZM192.5 0H175v17.5h17.5V0ZM192.5 35H175v17.5h17.5V35ZM175 17.5h-17.5V35H175V17.5ZM175 52.5h-17.5V70H175V52.5ZM87.5 0H70v17.5h17.5V0ZM87.5 35H70v17.5h17.5V35ZM70 17.5H52.5V35H70V17.5ZM70 52.5H52.5V70H70V52.5ZM227.5 0H210v17.5h17.5V0ZM227.5 35H210v17.5h17.5V35ZM210 17.5h-17.5V35H210V17.5ZM210 52.5h-17.5V70H210V52.5ZM122.5 0H105v17.5h17.5V0ZM122.5 35H105v17.5h17.5V35ZM105 17.5H87.5V35H105V17.5ZM105 52.5H87.5V70H105V52.5ZM262.5 0H245v17.5h17.5V0ZM262.5 35H245v17.5h17.5V35ZM245 17.5h-17.5V35H245V17.5ZM245 52.5h-17.5V70H245V52.5Z" fill="#fff"/><path d="M35 0H17.5v17.5H35V0ZM35 35H17.5v17.5H35V35ZM17.5 17.5H0V35h17.5V17.5ZM17.5 52.5H0V70h17.5V52.5ZM175 0h-17.5v17.5H175V0ZM175 35h-17.5v17.5H175V35ZM157.5 17.5H140V35h17.5V17.5ZM157.5 52.5H140V70h17.5V52.5ZM70 0H52.5v17.5H70V0ZM70 35H52.5v17.5H70V35ZM52.5 17.5H35V35h17.5V17.5ZM52.5 52.5H35V70h17.5V52.5ZM210 0h-17.5v17.5H210V0ZM210 35h-17.5v17.5H210V35ZM192.5 17.5H175V35h17.5V17.5ZM192.5 52.5H175V70h17.5V52.5ZM105 0H87.5v17.5H105V0ZM105 35H87.5v17.5H105V35ZM87.5 17.5H70V35h17.5V17.5ZM87.5 52.5H70V70h17.5V52.5ZM245 0h-17.5v17.5H245V0ZM245 35h-17.5v17.5H245V35ZM227.5 17.5H210V35h17.5V17.5ZM227.5 52.5H210V70h17.5V52.5ZM140 0h-17.5v17.5H140V0ZM140 35h-17.5v17.5H140V35ZM122.5 17.5H105V35h17.5V17.5ZM122.5 52.5H105V70h17.5V52.5ZM280 0h-17.5v17.5H280V0ZM280 35h-17.5v17.5H280V35ZM262.5 17.5H245V35h17.5V17.5ZM262.5 52.5H245V70h17.5V52.5Z" fill="#009465"/></svg>