<svg width="660" height="440" fill="none" xmlns="http://www.w3.org/2000/svg"><path d="M660 220A220 220 0 0 0 440 0v220h220Z" fill="#009465"/><path d="M440 0c121.503 0 220 98.497 220 220s-98.497 220-220 220-220-98.497-220-220S318.497 0 440 0Z" fill="#009465"/><path d="M440 440a219.998 219.998 0 0 0 220-220H440v220Z" fill="#fff"/><path d="M440 0a219.998 219.998 0 0 0-220 220h220V0Z" fill="#000"/><path d="M440 110c60.751 0 110 49.249 110 110s-49.249 110-110 110-110-49.249-110-110 49.249-110 110-110Z" fill="#000"/><path d="M550 220a110 110 0 1 0-220 0h220Z" fill="#fff"/><path d="M0 440c121.503 0 220-98.497 220-220S121.503 0 0 0s-220 98.497-220 220 98.497 220 220 220Z" fill="#000"/><path d="M220 220a220.012 220.012 0 0 1-64.436 155.564A220 220 0 0 1 0 440V220h220Z" fill="#009465"/></svg>